<svg width="16" height="16" viewBox="0 0 16 16" fill="none" xmlns="http://www.w3.org/2000/svg">
<path d="M14.6641 4.33398H10.6641" stroke="#373E4E" strokeWidth="1.5" strokeMiterlimit="10" stroke-linecap="round" stroke-linejoin="round"/>
<path d="M4.0026 4.33398H1.33594" stroke="#373E4E" strokeWidth="1.5" strokeMiterlimit="10" stroke-linecap="round" stroke-linejoin="round"/>
<path d="M6.66927 6.66667C7.95794 6.66667 9.0026 5.622 9.0026 4.33333C9.0026 3.04467 7.95794 2 6.66927 2C5.38061 2 4.33594 3.04467 4.33594 4.33333C4.33594 5.622 5.38061 6.66667 6.66927 6.66667Z" stroke="#373E4E" strokeWidth="1.5" strokeMiterlimit="10" stroke-linecap="round" stroke-linejoin="round"/>
<path d="M14.6667 11.666H12" stroke="#373E4E" strokeWidth="1.5" strokeMiterlimit="10" stroke-linecap="round" stroke-linejoin="round"/>
<path d="M5.33594 11.666H1.33594" stroke="#373E4E" strokeWidth="1.5" strokeMiterlimit="10" stroke-linecap="round" stroke-linejoin="round"/>
<path d="M9.33333 14.0007C10.622 14.0007 11.6667 12.956 11.6667 11.6673C11.6667 10.3787 10.622 9.33398 9.33333 9.33398C8.04467 9.33398 7 10.3787 7 11.6673C7 12.956 8.04467 14.0007 9.33333 14.0007Z" stroke="#373E4E" strokeWidth="1.5" strokeMiterlimit="10" stroke-linecap="round" stroke-linejoin="round"/>
</svg>
