<svg width="1736" height="1746" viewBox="0 0 1736 1746" fill="none" xmlns="http://www.w3.org/2000/svg">
<g clip-path="url(#clip0_116_34567)">
<rect width="1736" height="1746" fill="#EFEFFA"/>
<mask id="mask0_116_34567" style="mask-type:alpha" maskUnits="userSpaceOnUse" x="0" y="0" width="1736" height="1746">
<rect width="1736" height="1746" fill="#78A083" fill-opacity="0.1"/>
</mask>
<g mask="url(#mask0_116_34567)">
<path fill-rule="evenodd" clip-rule="evenodd" d="M356.27 1581.78C542.228 1581.78 692.977 1431.01 692.977 1245.03C692.977 1145.61 453.071 1228.04 384.557 1166.4C324.911 1112.73 442.815 908.283 356.27 908.283C170.311 908.283 19.5625 1059.05 19.5625 1245.03C19.5625 1431.01 170.311 1581.78 356.27 1581.78Z" fill="#5B5FC7"/>
<path opacity="0.541829" fill-rule="evenodd" clip-rule="evenodd" d="M801.679 386.102C764.084 599.341 906.449 802.686 1119.66 840.286C1233.64 860.387 1187.65 568.621 1272.17 502.518C1345.75 444.972 1556.29 621.505 1573.79 522.263C1611.38 309.024 1469.02 105.68 1255.8 68.0798C1042.59 30.48 839.274 172.864 801.679 386.102Z" fill="#5B5FC7"/>
<path opacity="0.6" fill-rule="evenodd" clip-rule="evenodd" d="M316.402 367.268C141.659 430.877 51.5603 624.118 115.162 798.884C149.163 892.313 346.412 732.791 431.874 767.28C506.274 797.305 465.398 1029.75 546.724 1000.15C721.467 936.54 811.566 743.299 747.964 568.533C684.363 393.768 491.146 303.658 316.402 367.268Z" fill="#5B5FC7"/>
<path fill-rule="evenodd" clip-rule="evenodd" d="M1660.87 1319.88C1702.36 1084.54 1545.24 860.117 1309.93 818.62C1184.14 796.436 1234.9 1118.44 1141.62 1191.4C1060.41 1254.91 828.047 1060.08 808.737 1169.61C767.245 1404.95 924.366 1629.37 1159.68 1670.86C1394.99 1712.36 1619.38 1555.22 1660.87 1319.88Z" fill="#5B5FC7"/>
</g>
</g>
<defs>
<clipPath id="clip0_116_34567">
<rect width="1736" height="1746" fill="white"/>
</clipPath>
</defs>
</svg>
