<svg width="720" height="1024" viewBox="0 0 720 1024" fill="none" xmlns="http://www.w3.org/2000/svg">
<rect width="720" height="1024" fill="#EFEFFA"/>
<mask id="mask0_691_60563" style="mask-type:alpha" maskUnits="userSpaceOnUse" x="0" y="0" width="720" height="1024">
<rect width="720" height="1024" fill="#78A083" fill-opacity="0.1"/>
</mask>
<g mask="url(#mask0_691_60563)">
<path fill-rule="evenodd" clip-rule="evenodd" d="M-151.637 1220.99C34.369 1220.99 185.156 1070.2 185.156 884.195C185.156 784.757 -54.8109 867.198 -123.342 805.548C-183.003 751.877 -65.0691 547.402 -151.637 547.402C-337.642 547.402 -488.43 698.19 -488.43 884.195C-488.43 1070.2 -337.642 1220.99 -151.637 1220.99Z" fill="#5B5FC7"/>
<path opacity="0.541829" fill-rule="evenodd" clip-rule="evenodd" d="M293.886 25.1542C256.282 238.421 398.684 441.792 611.95 479.396C725.962 499.5 679.952 207.696 764.493 141.585C838.092 84.0309 1048.69 260.587 1066.19 161.333C1103.8 -51.9338 961.395 -255.305 748.128 -292.909C534.862 -330.514 331.491 -188.112 293.886 25.1542Z" fill="#5B5FC7"/>
<path opacity="0.6" fill-rule="evenodd" clip-rule="evenodd" d="M-191.518 6.316C-366.306 69.9337 -456.428 263.2 -392.81 437.988C-358.8 531.429 -161.501 371.886 -76.0174 406.38C-1.59785 436.409 -42.4851 668.888 38.8618 639.28C213.65 575.662 303.771 382.396 240.154 207.608C176.536 32.8198 -16.73 -57.3017 -191.518 6.316Z" fill="#5B5FC7"/>
<path fill-rule="evenodd" clip-rule="evenodd" d="M1153.3 959.05C1194.8 723.679 1037.64 499.229 802.266 457.727C676.438 435.54 727.216 757.588 633.912 830.552C552.686 894.071 320.259 699.215 300.943 808.757C259.441 1044.13 416.603 1268.58 651.973 1310.08C887.344 1351.58 1111.79 1194.42 1153.3 959.05Z" fill="#5B5FC7"/>
</g>
</svg>
