<svg width="16" height="16" viewBox="0 0 16 16" fill="none" xmlns="http://www.w3.org/2000/svg">
<path d="M10.6693 8.60065V11.4007C10.6693 13.734 9.73594 14.6673 7.4026 14.6673H4.6026C2.26927 14.6673 1.33594 13.734 1.33594 11.4007V8.60065C1.33594 6.26732 2.26927 5.33398 4.6026 5.33398H7.4026C9.73594 5.33398 10.6693 6.26732 10.6693 8.60065Z" stroke="#808080" stroke-width="1.5" stroke-linecap="round" stroke-linejoin="round"/>
<path d="M14.6693 4.60065V7.40065C14.6693 9.73398 13.7359 10.6673 11.4026 10.6673H10.6693V8.60065C10.6693 6.26732 9.73594 5.33398 7.4026 5.33398H5.33594V4.60065C5.33594 2.26732 6.26927 1.33398 8.6026 1.33398H11.4026C13.7359 1.33398 14.6693 2.26732 14.6693 4.60065Z" stroke="#808080" stroke-width="1.5" stroke-linecap="round" stroke-linejoin="round"/>
</svg>
