<svg width="42" height="42" viewBox="0 0 42 42" fill="none" xmlns="http://www.w3.org/2000/svg">
<path d="M40.3984 30.9181L34.1389 16.299C32.019 11.3394 28.1192 11.1393 25.4994 15.859L21.7197 22.6787C19.7998 26.1384 16.2199 26.4384 13.7402 23.3387L13.3001 22.7786C10.7203 19.5388 7.08056 19.9388 5.22068 23.6386L1.78084 30.5382C-0.639062 35.3379 2.86077 40.9975 8.22049 40.9975H33.7388C38.9386 40.9975 42.4383 35.6979 40.3984 30.9181Z" fill="#5B5FC7" stroke="#5B5FC7" stroke-width="1.5" stroke-linecap="round" stroke-linejoin="round"/>
<path d="M10.984 12.9993C14.2975 12.9993 16.9836 10.3131 16.9836 6.99963C16.9836 3.68614 14.2975 1 10.984 1C7.67052 1 4.98438 3.68614 4.98438 6.99963C4.98438 10.3131 7.67052 12.9993 10.984 12.9993Z" fill="#5B5FC7" stroke="#5B5FC7" stroke-width="1.5" stroke-linecap="round" stroke-linejoin="round"/>
</svg>
