<svg width="40" height="40" viewBox="0 0 40 40" fill="none" xmlns="http://www.w3.org/2000/svg">
<path d="M36.6654 15.0031V25.0031C36.6654 29.1698 35.832 32.0865 33.9654 33.9698L23.332 23.3365L36.2154 10.4531C36.5154 11.7698 36.6654 13.2698 36.6654 15.0031Z" stroke="#373E4E" stroke-width="1.5" stroke-linecap="round" stroke-linejoin="round"/>
<path d="M36.2154 10.4526L10.4487 36.2193C5.43201 35.0693 3.33203 31.6026 3.33203 25.0026V15.0026C3.33203 6.66927 6.66536 3.33594 14.9987 3.33594H24.9987C31.5987 3.33594 35.0654 5.43594 36.2154 10.4526Z" stroke="#373E4E" stroke-width="1.5" stroke-linecap="round" stroke-linejoin="round"/>
<path d="M33.9659 33.9693C32.0826 35.8359 29.1659 36.6693 24.9992 36.6693H14.9992C13.2659 36.6693 11.7659 36.5193 10.4492 36.2193L23.3326 23.3359L33.9659 33.9693Z" stroke="#373E4E" stroke-width="1.5" stroke-linecap="round" stroke-linejoin="round"/>
<path d="M10.3995 13.3031C11.5328 8.41979 18.8661 8.41979 19.9995 13.3031C20.6495 16.1698 18.8495 18.6031 17.2661 20.1031C16.1161 21.2031 14.2995 21.2031 13.1328 20.1031C11.5495 18.6031 9.73279 16.1698 10.3995 13.3031Z" stroke="#373E4E" stroke-width="1.5"/>
<path d="M15.1562 14.4974H15.1712" stroke="#373E4E" stroke-width="2" stroke-linecap="round" stroke-linejoin="round"/>
</svg>
