<svg width="200" height="123" viewBox="0 0 200 123" fill="none" xmlns="http://www.w3.org/2000/svg">
<path opacity="0.8" fill-rule="evenodd" clip-rule="evenodd" d="M40.1542 22.9377C42.2108 16.469 44.1247 12.4416 45.8929 10.8537C50.7894 6.45902 57.5595 8.85081 58.9988 9.19337C64.0551 10.4001 62.4111 2.45933 66.7492 0.845262C69.6403 -0.230271 72.018 1.08444 73.8838 4.7894C75.5356 1.33288 78.0529 -0.250331 81.4356 0.032054C86.5105 0.45949 88.2864 17.5122 95.2597 13.7794C102.235 10.0452 110.785 9.19183 114.438 14.7408C115.227 15.9413 115.53 14.0788 120.899 7.71972C126.269 1.35911 131.623 -1.44314 142.607 2.26027C147.601 3.94224 151.708 8.50207 154.933 15.9382C154.933 26.5516 162.781 32.835 178.474 34.784C202.017 37.7081 183.743 62.8898 154.933 70.2642C126.122 77.6402 59.7899 81.6214 23.7942 62.987C-0.202917 50.5667 5.25041 37.2159 40.1526 22.9377H40.1542Z" fill="url(#paint0_linear_691_60370)"/>
<path d="M99.1853 116.727C123.159 116.727 142.593 112.251 142.593 106.731C142.593 101.21 123.159 96.7344 99.1853 96.7344C75.2117 96.7344 55.7773 101.21 55.7773 106.731C55.7773 112.251 75.2117 116.727 99.1853 116.727Z" fill="url(#paint1_linear_691_60370)"/>
<path opacity="0.675" fill-rule="evenodd" clip-rule="evenodd" d="M172.473 119.203C139.835 127.348 28.4313 118.032 16.5739 113.778C10.8026 111.705 5.60052 107.809 0.969226 102.087C0.450881 101.448 0.125069 100.675 0.0294384 99.8588C-0.0661918 99.0426 0.0722636 98.2161 0.428805 97.4748C0.785347 96.7336 1.34542 96.1079 2.04431 95.6699C2.7432 95.232 3.55237 94.9997 4.37833 95H199.051C203.091 105.706 194.232 113.773 172.473 119.203Z" fill="url(#paint2_linear_691_60370)"/>
<path d="M132.495 79.9411L117.65 62.6708C117.299 62.2588 116.863 61.927 116.371 61.6979C115.879 61.4689 115.344 61.3481 114.801 61.3438H82.8813C81.7863 61.3438 80.7456 61.8437 80.0321 62.6708L65.1875 79.9411V89.4218H132.495V79.9411Z" fill="url(#paint3_linear_691_60370)"/>
<path d="M128.285 89.7703L115.293 74.7282C114.978 74.3731 114.591 74.0893 114.157 73.8963C113.723 73.7033 113.252 73.6054 112.777 73.6095H84.8991C83.9421 73.6095 83.0069 74.0045 82.3834 74.7282L69.3906 89.7703V98.032H128.285V89.7703Z" fill="url(#paint4_linear_691_60370)"/>
<path d="M132.495 100.289C132.495 101.605 131.899 102.789 130.959 103.582L130.769 103.736C130.023 104.298 129.113 104.602 128.178 104.601H69.5055C68.975 104.601 68.4679 104.505 67.9995 104.329L67.7668 104.236C66.9993 103.897 66.3472 103.343 65.8894 102.642C65.4316 101.941 65.1878 101.123 65.1875 100.288V80.0469H81.518C83.3218 80.0469 84.7751 81.5236 84.7751 83.3151V83.3383C84.7751 85.1314 86.2455 86.5772 88.0493 86.5772H109.633C110.5 86.5764 111.331 86.2338 111.945 85.6244C112.559 85.015 112.905 84.1886 112.907 83.3259C112.907 81.5267 114.362 80.0469 116.164 80.0469H132.496L132.495 100.289Z" fill="url(#paint5_linear_691_60370)"/>
<defs>
<linearGradient id="paint0_linear_691_60370" x1="103.421" y1="57.0172" x2="103.421" y2="-13.4765" gradientUnits="userSpaceOnUse">
<stop stop-color="#DEDEDE" stop-opacity="0"/>
<stop offset="1" stop-color="#A9A9A9" stop-opacity="0.3"/>
</linearGradient>
<linearGradient id="paint1_linear_691_60370" x1="94.6621" y1="116.727" x2="94.6621" y2="96.7344" gradientUnits="userSpaceOnUse">
<stop stop-color="white" stop-opacity="0"/>
<stop offset="1" stop-color="#BDBFE9" stop-opacity="0.6"/>
</linearGradient>
<linearGradient id="paint2_linear_691_60370" x1="100" y1="122.434" x2="100" y2="89.6024" gradientUnits="userSpaceOnUse">
<stop stop-color="white" stop-opacity="0"/>
<stop offset="1" stop-color="#919191" stop-opacity="0.15"/>
</linearGradient>
<linearGradient id="paint3_linear_691_60370" x1="98.8412" y1="61.3438" x2="98.8412" y2="73.9648" gradientUnits="userSpaceOnUse">
<stop stop-color="#5B5FC7"/>
<stop offset="1" stop-color="#9D9FDD"/>
</linearGradient>
<linearGradient id="paint4_linear_691_60370" x1="106.697" y1="98.032" x2="106.697" y2="72.3111" gradientUnits="userSpaceOnUse">
<stop stop-color="#DEDFF4"/>
<stop offset="1" stop-color="#BDBFE9"/>
</linearGradient>
<linearGradient id="paint5_linear_691_60370" x1="98.8419" y1="80.0469" x2="98.8419" y2="104.601" gradientUnits="userSpaceOnUse">
<stop stop-color="#BDBFE9"/>
<stop offset="1" stop-color="#DEDFF4"/>
</linearGradient>
</defs>
</svg>
