<svg width="800" height="800" viewBox="0 0 800 800" fill="none" xmlns="http://www.w3.org/2000/svg">
<g clip-path="url(#clip0_4715_85678)">
<path d="M400 793.75C182.875 793.75 6.25 617.125 6.25 400C6.25 182.875 182.875 6.25 400 6.25C617.125 6.25 793.75 182.875 793.75 400C793.75 617.125 617.125 793.75 400 793.75Z" fill="white"/>
<path d="M400 12.5C613.675 12.5 787.5 186.325 787.5 400C787.5 613.675 613.675 787.5 400 787.5C186.325 787.5 12.5 613.675 12.5 400C12.5 186.325 186.325 12.5 400 12.5ZM400 0C179.075 0 0 179.075 0 400C0 620.925 179.075 800 400 800C620.925 800 800 620.925 800 400C800 179.075 620.925 0 400 0Z" fill="#D6D6D6"/>
<path d="M399.999 368.949C453.253 368.949 496.424 326.64 496.424 274.449C496.424 222.258 453.253 179.949 399.999 179.949C346.745 179.949 303.574 222.258 303.574 274.449C303.574 326.64 346.745 368.949 399.999 368.949Z" fill="#5B5FC7"/>
<path d="M566.549 563.475C566.549 473.325 491.974 400.25 399.999 400.25C308.024 400.25 233.449 473.325 233.449 563.475H566.549Z" fill="#5B5FC7"/>
</g>
<defs>
<clipPath id="clip0_4715_85678">
<rect width="800" height="800" fill="white"/>
</clipPath>
</defs>
</svg>
