<svg width="16" height="17" viewBox="0 0 16 17" fill="none" xmlns="http://www.w3.org/2000/svg">
<path d="M5.45329 5.95961C5.58158 6.37034 5.80712 6.74402 6.11074 7.04892C6.41437 7.35383 6.78711 7.58093 7.19729 7.71094M9.53529 7.34761C9.85345 7.12315 10.1186 6.83174 10.3121 6.49386C10.5056 6.15598 10.6228 5.77982 10.6554 5.39181C10.6879 5.00381 10.6352 4.61338 10.5007 4.24795C10.3663 3.88252 10.1535 3.55097 9.87722 3.27658C9.60096 3.0022 9.26796 2.79164 8.90162 2.6597C8.53529 2.52777 8.14451 2.47766 7.75673 2.51289C7.36896 2.54813 6.99361 2.66786 6.65705 2.86366C6.3205 3.05946 6.0309 3.32659 5.80862 3.64628M4 14.5V13.1667C4 12.4594 4.28095 11.7811 4.78105 11.281C5.28115 10.781 5.95942 10.5 6.66667 10.5H9.33333C9.608 10.5 9.87333 10.5413 10.122 10.6187M11.8773 12.364C11.9573 12.6173 12 12.8873 12 13.1667V14.5M2 2.5L14 14.5" stroke="white" stroke-width="1.5" stroke-linecap="round" stroke-linejoin="round"/>
</svg>
