<svg width="24" height="24" viewBox="0 0 24 24" fill="none" xmlns="http://www.w3.org/2000/svg">
<path d="M8.17993 8.18942C8.37237 8.8055 8.71068 9.36603 9.16611 9.82339C9.62155 10.2807 10.1807 10.6214 10.7959 10.8164M14.3029 10.2714C14.7802 9.93473 15.1779 9.49762 15.4682 8.99079C15.7584 8.48396 15.9342 7.91973 15.983 7.33772C16.0319 6.75572 15.9528 6.17007 15.7511 5.62193C15.5495 5.07378 15.2302 4.57645 14.8158 4.16487C14.4014 3.7533 13.9019 3.43746 13.3524 3.23956C12.8029 3.04165 12.2168 2.96649 11.6351 3.01934C11.0534 3.07219 10.4904 3.25178 9.98558 3.54549C9.48075 3.83919 9.04636 4.23989 8.71293 4.71942M6 21V19C6 17.9391 6.42143 16.9217 7.17157 16.1716C7.92172 15.4214 8.93913 15 10 15H14C14.412 15 14.81 15.062 15.183 15.178M17.816 17.796C17.936 18.176 18 18.581 18 19V21M3 3L21 21" stroke="white" stroke-width="1.5" stroke-linecap="round" stroke-linejoin="round"/>
</svg>
